<svg width="21" height="10" viewBox="0 0 21 10" xmlns="http://www.w3.org/2000/svg">
<path d="M15.8933 7.21782C15.0035 8.29 15.3546 8.77666 17.5572 9.52401C20.7088 10.5933 21.3392 9.86071 20.4198 6.19733C19.1184 1.01225 10.6555 -1.73143 4.994 1.19626C0.986434 3.26866 -1.77767 9.77126 1.34897 9.77126C2.84826 9.77126 3.22671 8.75759 2.91196 5.58436C2.70987 3.54695 5.73388 1.77126 9.40567 1.77126C11.5809 1.77126 11.8748 2.03519 10.9459 3.15447C10.0607 4.22113 10.1471 4.67167 11.3234 5.12309C12.1625 5.44506 12.849 5.27261 12.849 4.73987C12.849 3.44234 15.5634 3.50021 16.376 4.81506C16.7308 5.38916 16.5136 6.47039 15.8933 7.21782Z" />
</svg>
