<svg width="22" height="22" viewBox="0 0 22 22" xmlns="http://www.w3.org/2000/svg">
<path d="M3.49999 18.3491C-5.23648 9.61264 5.49314 -3.95946 16.5969 1.78253C26.1301 6.71235 22.0064 21.2722 11.0769 21.2722C7.26653 21.2722 5.89329 20.7424 3.49999 18.3491ZM15.6427 19.237C18.355 17.7854 18.0502 16.2722 15.0455 16.2722C13.6533 16.2722 12.2561 15.5998 11.9407 14.7779C11.6254 13.9561 10.9645 13.5326 10.4721 13.8369C9.97976 14.1412 9.57692 13.8612 9.57692 13.2146C9.57692 12.531 10.4146 12.258 11.5783 12.5623C12.6791 12.8501 13.3443 12.7049 13.0567 12.2394C12.769 11.774 13.7246 10.2889 15.1802 8.93925C16.6357 7.58957 17.5189 5.98734 17.1428 5.37874C16.3007 4.01621 13.5769 3.91085 13.5769 5.2408C13.5769 5.77354 12.8904 5.94599 12.0514 5.62402C10.875 5.17259 10.7886 4.72205 11.6738 3.6554C13.2048 1.81072 7.73475 1.70507 5.23752 3.53109C2.08257 5.83804 5.09633 12.9507 10.3084 15.4987C12.008 16.3296 12.9635 17.5124 12.7831 18.5622C12.4428 20.5424 12.9707 20.667 15.6427 19.237Z" />
</svg>
