<?xml version="1.0" encoding="UTF-8" standalone="no"?>
<!-- Created with Inkscape (http://www.inkscape.org/) -->

<svg
   version="1.1"
   id="svg149"
   width="180"
   height="60"
   viewBox="0 0 180 60"
   sodipodi:docname="projection-icons.svg"
   inkscape:version="1.2.1 (9c6d41e, 2022-07-14)"
   xmlns:inkscape="http://www.inkscape.org/namespaces/inkscape"
   xmlns:sodipodi="http://sodipodi.sourceforge.net/DTD/sodipodi-0.dtd"
   xmlns="http://www.w3.org/2000/svg"
   xmlns:svg="http://www.w3.org/2000/svg">
  <defs
     id="defs153" />
  <sodipodi:namedview
     id="namedview151"
     pagecolor="#ffffff"
     bordercolor="#000000"
     borderopacity="0.25"
     inkscape:showpageshadow="2"
     inkscape:pageopacity="0.0"
     inkscape:pagecheckerboard="0"
     inkscape:deskcolor="#d1d1d1"
     showgrid="false"
     inkscape:zoom="4.1533594"
     inkscape:cx="54.654553"
     inkscape:cy="67.776461"
     inkscape:window-width="1728"
     inkscape:window-height="1051"
     inkscape:window-x="0"
     inkscape:window-y="38"
     inkscape:window-maximized="1"
     inkscape:current-layer="g155" />
  <g
     inkscape:groupmode="layer"
     inkscape:label="Image"
     id="g155">
    <path
       style="fill:#000000"
       d="m 25.87717,37.384294 c -5.818482,-5.818481 -2.397463,-10.035223 3.900804,-4.808125 0.764183,0.634215 2.35393,1.645656 3.532771,2.247646 1.181322,0.603257 2.011461,1.855099 1.849511,2.789042 -0.340687,1.964694 0.191295,2.087352 2.859578,0.65933 2.715659,-1.453376 2.405319,-2.776206 -0.738622,-3.148394 -4.333729,-0.513037 -3.763302,-2.46916 1.075328,-3.687541 5.768079,-1.452419 5.597553,-1.481301 5.597553,0.948042 0,3.935118 -5.285014,7.923077 -10.5,7.923077 -3.810391,0 -5.183619,-0.529773 -7.576923,-2.923077 z m 55.000002,0 c -8.736469,-8.736467 1.99315,-22.308566 13.096942,-16.566573 9.533206,4.929814 5.409451,19.48965 -5.520022,19.48965 -3.81039,0 -5.18362,-0.529773 -7.57692,-2.923077 z m 12.142662,0.887893 c 2.71235,-1.451606 2.40759,-2.964816 -0.59712,-2.964816 -1.39227,0 -2.789422,-0.672415 -3.104792,-1.494256 -0.31537,-0.821841 -0.97625,-1.245284 -1.46861,-0.940983 -0.49237,0.3043 -0.89522,0.02423 -0.89522,-0.622375 0,-0.68359 0.83766,-0.956595 2.00138,-0.652276 1.100762,0.287855 1.766032,0.14257 1.478382,-0.322855 -0.28765,-0.465425 0.66792,-1.95051 2.12349,-3.300189 1.45557,-1.349679 2.33874,-2.95191 1.9626,-3.560514 -0.84209,-1.362528 -3.56585,-1.467891 -3.56585,-0.137937 0,0.532739 -0.68649,0.705186 -1.525522,0.383217 -1.17639,-0.451422 -1.2628,-0.901965 -0.37756,-1.968615 1.530952,-1.844679 -3.93908,-1.950332 -6.43631,-0.124316 -3.15495,2.306958 -0.1412,9.419649 5.07088,11.96765 1.69957,0.830861 2.655062,2.013678 2.474672,3.06344 -0.340272,1.980266 0.18759,2.104834 2.85958,0.674825 z m 59.642526,-9.212062 c -2.20262,-0.747357 -2.55374,-1.234012 -1.66391,-2.306195 0.62031,-0.747422 0.83753,-1.828661 0.48272,-2.402754 -0.81262,-1.314857 -3.52707,-1.372723 -3.52707,-0.07519 0,0.532739 -0.68649,0.705186 -1.52552,0.383217 -1.17639,-0.451422 -1.2628,-0.901965 -0.37756,-1.968615 0.92892,-1.119281 0.63503,-1.383217 -1.54022,-1.383217 -3.6718,0 -6.6958,1.775692 -6.49371,3.813103 0.31475,3.173228 -0.0637,4.186897 -1.56299,4.186897 -3.12664,0 -0.36254,-6.502601 3.64503,-8.574996 5.66152,-2.927689 14.1244,-0.18401 15.42577,5.001064 0.91945,3.663383 0.28903,4.396023 -2.86254,3.326686 z"
       id="path32996"
       sodipodi:nodetypes="ssssssssssssssssssssssssssssssssssssssssss" />
  </g>
</svg>
