<?xml version="1.0" encoding="UTF-8" standalone="no"?>
<!-- Created with Inkscape (http://www.inkscape.org/) -->

<svg
   width="168.98288mm"
   height="160.12456mm"
   viewBox="0 0 168.98288 160.12456"
   version="1.1"
   id="svg5"
   sodipodi:docname="unpin.svg"
   xmlns:inkscape="http://www.inkscape.org/namespaces/inkscape"
   xmlns:sodipodi="http://sodipodi.sourceforge.net/DTD/sodipodi-0.dtd"
   xmlns="http://www.w3.org/2000/svg"
   xmlns:svg="http://www.w3.org/2000/svg">
  <sodipodi:namedview
     id="namedview7"
     pagecolor="#ffffff"
     bordercolor="#111111"
     borderopacity="1"
     inkscape:showpageshadow="0"
     inkscape:pageopacity="0"
     inkscape:pagecheckerboard="1"
     inkscape:deskcolor="#d1d1d1"
     inkscape:document-units="mm"
     showgrid="false"
     inkscape:lockguides="false"
     inkscape:zoom="1.2623761"
     inkscape:cx="390.92946"
     inkscape:cy="397.26672"
     inkscape:window-width="1718"
     inkscape:window-height="1368"
     inkscape:window-x="3633"
     inkscape:window-y="0"
     inkscape:window-maximized="0"
     inkscape:current-layer="layer1" />
  <defs
     id="defs2" />
  <g
     inkscape:label="Layer 1"
     inkscape:groupmode="layer"
     id="layer1"
     transform="translate(-13.816535,-32.901351)">
    <path
       id="rect111"
       style="stroke-width:0.264583"
       d="m 58.019714,32.901351 c -4.844173,0 -8.744169,3.89948 -8.744169,8.743652 0,4.844173 3.899996,8.744169 8.744169,8.744169 h 14.526762 v 16.465662 l 71.391504,64.113396 h 21.29845 v -15.62282 h -27.7828 V 50.389172 h 14.52676 c 4.84417,0 8.74417,-3.899996 8.74417,-8.744169 0,-4.844172 -3.9,-8.743652 -8.74417,-8.743652 z m 14.526762,51.930163 v 10.636561 c -1.29561,6.136365 -5.843462,17.462465 -21.806937,19.877335 h -5.975863 v 0.45734 c -0.03344,3.2e-4 -0.06621,10e-4 -0.09974,0.002 l 0.09974,-5.2e-4 v 15.16445 H 99.44561 v 46.76562 h 11.10837 v -46.76562 h 13.36662 z"
       inkscape:export-filename="rect111.svg"
       inkscape:export-xdpi="94.526291"
       inkscape:export-ydpi="94.526291" />
    <path
       style="fill:#000000;stroke-width:0.264583"
       d="M 42.651875,115.58973 69.270001,94.525779"
       id="path754" />
    <path
       style="fill:#000000;stroke-width:0.264583"
       d="M 165.24983,116.17179 C 137.0596,115.9622 136.85001,91.859191 136.85001,91.859191 l -0.10479,24.207799"
       id="path1015-1" />
    <rect
       style="fill:#000000;stroke-width:0.196259"
       id="rect1065"
       width="8.2194862"
       height="8.2596636"
       x="194.30667"
       y="37.556301"
       transform="matrix(0.67146379,0.74103737,-0.67730156,0.73570551,0,0)" />
    <rect
       style="fill:#000000;stroke-width:0.252644"
       id="rect9048"
       width="13.376162"
       height="216.45747"
       x="14.013362"
       y="-258.65253"
       ry="1.0524229"
       transform="matrix(-0.65741226,0.7535311,-0.74401369,-0.66816438,0,0)"
       inkscape:transform-center-x="-77.62434"
       inkscape:transform-center-y="69.407388" />
  </g>
</svg>
